PathFileType	4	(X/Y/Z)	c:/Users/goper/Files/vsCode/490R/osim_files/A04/A04_Fast_05.trc
DataRate	CameraRate	NumFrames	NumMarkers	Units                	OrigDataRate	OrigDataStartFrame	OrigNumFrames
120.00	120.00	8	36	mm	120.0	872	1162
                Frame#	Time	LPSIS			LASIS			LTH1			LTH2			LTH3			LTH4			LLFE			LMFE			LSH1			LSH2			LSH3			LSH4			LLMAL			LMMAL			LCAL			LMTP5			LTOE			LMTP1			RPSIS			RASIS			RTH1			RTH2			RTH3			RTH4			RLFE			RMFE			RSH1			RSH2			RSH3			RSH4			RLMAL			RMMAL			RCAL			RMTP1			RTOE			RMTP5		
		X1	Y1	Z1	X2	Y2	Z2	X3	Y3	Z3	X4	Y4	Z4	X5	Y5	Z5	X6	Y6	Z6	X7	Y7	Z7	X8	Y8	Z8	X9	Y9	Z9	X10	Y10	Z10	X11	Y11	Z11	X12	Y12	Z12	X13	Y13	Z13	X14	Y14	Z14	X15	Y15	Z15	X16	Y16	Z16	X17	Y17	Z17	X18	Y18	Z18	X19	Y19	Z19	X20	Y20	Z20	X21	Y21	Z21	X22	Y22	Z22	X23	Y23	Z23	X24	Y24	Z24	X25	Y25	Z25	X26	Y26	Z26	X27	Y27	Z27	X28	Y28	Z28	X29	Y29	Z29	X30	Y30	Z30	X31	Y31	Z31	X32	Y32	Z32	X33	Y33	Z33	X34	Y34	Z34	X35	Y35	Z35	X36	Y36	Z36

872	7.25833	-2167.27100	1075.45740	340.33163	-2387.20020	1028.98560	422.33704	-2426.21655	732.67896	465.19363	-2448.57764	695.30450	464.06531	-2479.62329	760.92126	458.74515	-2497.09619	720.33325	460.54541	-2528.76587	576.41394	457.07901	-2536.17773	572.84937	317.05347	-2491.88940	475.19238	462.56009	-2496.70483	432.07144	460.15573	-2552.07275	474.93973	447.96179	-2547.40015	431.72928	446.48959	-2462.91577	150.65034	424.35196	-2484.35083	149.66591	339.23672	-2394.83350	118.54269	369.52570	-2594.72559	78.42313	458.86276	-2642.86548	85.06732	396.74115	-2623.66333	72.53835	352.81577	-2166.67896	1064.61035	233.92874	-2392.25122	1025.26489	137.88219	-2240.65186	733.62445	119.49894	-2242.53442	691.18854	123.21355	-2302.32349	729.44971	111.71022	-2295.34424	682.82574	119.50162	-2272.79102	548.88696	151.23360	-2282.59106	547.16779	266.71381	-2180.66382	346.94699	167.64769	-2180.57715	299.68646	176.86102	-2240.05200	338.60977	158.72052	-2229.06177	292.55554	164.82031	-2181.03149	105.15670	177.61858	-2216.31812	116.90573	308.10376	-2118.10889	64.26958	261.11279	-2345.31152	59.73910	280.14990	-2363.71069	80.52893	232.55095	-2325.57935	52.98298	163.14162
873	7.26667	-2177.34790	1073.82727	340.74844	-2397.35474	1027.25244	422.65564	-2436.42773	730.96149	465.18329	-2456.82422	692.96057	462.44022	-2488.71997	758.78802	457.51617	-2505.82153	718.01825	458.93671	-2537.57739	574.67242	455.60797	-2546.51367	571.36615	315.76294	-2505.78174	471.76566	461.10306	-2512.69873	429.03043	458.84082	-2566.02930	474.45480	446.96790	-2563.54175	431.12222	445.60718	-2493.05054	146.30162	423.40439	-2515.18481	146.04547	338.43842	-2427.27173	110.48451	367.94925	-2628.23291	80.61343	458.90970	-2676.15625	89.64111	397.03296	-2658.42358	75.89258	353.15909	-2176.72217	1063.22632	234.32942	-2402.42407	1024.10681	138.12012	-2247.30273	733.86139	119.46359	-2248.54102	691.43079	123.29254	-2308.80493	728.85956	112.02898	-2301.34741	682.40253	119.96580	-2277.00342	548.50635	151.38998	-2286.42236	546.88934	267.27057	-2182.95410	347.36758	167.79170	-2182.46997	300.11835	176.95975	-2242.92896	338.51608	159.07553	-2231.38208	292.41641	164.95227	-2181.51562	105.24584	177.82333	-2216.82812	117.04990	308.07733	-2118.30444	64.79451	261.10168	-2345.40161	59.50843	280.12894	-2364.06177	80.37080	232.61845	-2325.77612	52.93463	163.18973
874	7.27500	-2187.43433	1072.10535	341.16455	-2407.67798	1025.33936	423.15665	-2443.70142	727.93671	461.42828	-2466.14941	690.48682	461.19705	-2497.45435	756.25000	456.18130	-2514.38843	715.27985	457.50192	-2546.34790	572.43884	454.10934	-2556.66870	569.50342	314.41495	-2519.28101	468.04459	459.45120	-2528.40796	425.82477	457.32495	-2579.52588	473.75882	445.84607	-2579.14062	430.30310	444.47623	-2523.20044	142.32637	422.18167	-2546.16138	143.14027	337.28085	-2459.43042	103.26825	366.18930	-2660.50684	83.47272	458.99240	-2708.37744	94.22591	397.44016	-2691.87451	80.02570	353.40756	-2186.87744	1061.67395	234.68541	-2412.42383	1023.01495	138.76202	-2253.79224	734.03192	119.49406	-2254.57349	691.52032	123.50793	-2315.42236	728.22632	112.46920	-2307.44800	681.91931	120.44413	-2281.35400	548.02991	151.52411	-2290.45142	546.60760	267.82828	-2185.29932	347.78757	167.98045	-2184.45239	300.50290	177.10233	-2245.30469	338.43924	159.20685	-2233.34155	292.45908	165.11150	-2182.13770	105.69105	177.88062	-2217.34033	117.17182	308.04468	-2118.49609	65.37967	261.10184	-2344.09351	58.90514	280.76947	-2363.99878	79.77824	232.64114	-2325.93506	52.89011	163.22603
875	7.28333	-2197.76709	1070.18384	341.63394	-2417.96802	1023.40088	423.69565	-2452.09131	725.04236	459.84793	-2474.45850	687.54138	459.65335	-2505.70093	753.20239	454.83420	-2522.87939	712.42175	456.28793	-2555.16431	569.65967	452.16348	-2568.28320	568.21954	313.45587	-2532.53442	464.20267	457.61377	-2543.74487	422.53018	455.64429	-2592.71973	472.78671	444.77347	-2594.53394	429.76846	443.44434	-2552.49487	138.91823	420.61069	-2576.51343	140.95175	335.99615	-2490.97925	97.08485	364.22083	-2692.49243	86.76498	459.06177	-2741.09058	100.47093	398.16879	-2724.64185	84.84222	353.75806	-2197.19019	1059.91113	235.10912	-2422.86450	1021.63733	139.26036	-2260.67847	734.13226	119.61203	-2260.57373	691.67645	123.53233	-2322.17261	727.65570	112.82059	-2313.43359	681.40936	120.81959	-2286.19189	547.64087	151.72011	-2294.82983	546.38531	268.41260	-2187.85669	348.20859	168.09671	-2186.68652	300.96082	177.24661	-2247.68848	338.42862	159.27776	-2235.45996	292.51703	165.17091	-2182.60059	106.16043	177.95563	-2218.07153	117.34283	308.06244	-2118.77026	65.97678	261.15887	-2344.72144	58.05824	280.62363	-2364.55933	79.40032	232.46271	-2326.13501	52.86025	163.26590
876	7.29167	-2208.07422	1068.12622	342.06741	-2428.36475	1021.22552	424.33124	-2460.05469	721.79333	458.39276	-2482.44385	684.16614	458.10577	-2513.92065	749.74451	453.51617	-2530.85059	708.84796	454.92120	-2562.42017	566.54303	450.68875	-2577.58350	565.73096	311.88998	-2545.40234	460.15750	455.54898	-2558.54541	419.08069	453.73373	-2605.25464	471.63760	443.50348	-2609.10181	428.69592	442.10858	-2581.22241	136.19429	418.71701	-2606.06982	139.51408	334.51077	-2522.50781	91.50163	361.40561	-2722.57666	90.72594	459.15085	-2771.13477	107.04255	398.33194	-2756.63159	90.46614	354.22577	-2207.53638	1058.08093	235.56450	-2433.14917	1020.09357	139.83183	-2267.47632	734.13074	119.66115	-2267.39575	691.59186	123.80129	-2328.87183	726.93719	113.25527	-2319.77124	680.87848	121.28158	-2290.87036	547.11041	151.85509	-2299.67798	546.53967	268.95532	-2190.50269	348.66275	168.37601	-2189.06909	301.39511	177.46432	-2250.18042	338.38022	159.42540	-2237.23047	292.18546	165.25777	-2183.43262	106.89222	177.92305	-2218.75806	117.50059	308.06009	-2119.06006	66.57547	261.14444	-2345.34131	57.96640	280.95541	-2364.60767	78.85307	232.79881	-2326.15454	53.04598	163.14426
877	7.30000	-2218.44287	1066.06360	342.46506	-2438.95142	1018.98975	425.15381	-2467.81372	718.09344	456.63123	-2490.03979	680.31567	456.36057	-2521.84766	745.89545	452.29532	-2539.24927	705.28638	454.36365	-2570.16260	563.02777	448.89191	-2587.31860	563.35767	310.26160	-2557.90869	455.98138	453.32568	-2572.60791	415.57394	451.52072	-2617.31396	470.23975	442.12714	-2622.97729	427.45026	440.68430	-2609.30762	134.06557	416.38657	-2635.48901	138.83266	332.61734	-2553.14355	86.92133	358.07123	-2751.87915	95.15699	458.99051	-2800.51685	113.69675	398.95285	-2787.61475	96.84724	354.71426	-2217.99805	1056.20032	235.97800	-2443.62207	1018.52545	140.54251	-2274.10474	734.12646	119.64625	-2273.95532	691.54816	123.93325	-2335.93188	726.29388	113.50410	-2326.05786	680.27594	121.52060	-2294.86768	546.71289	151.77095	-2304.30908	545.54730	269.25674	-2193.44482	349.16937	168.51872	-2191.52808	301.84460	177.54422	-2252.98120	338.23193	159.46066	-2239.84570	292.19272	165.24634	-2184.36841	107.07582	178.22226	-2219.46436	117.70332	308.03055	-2119.38452	67.29392	261.16415	-2345.70825	58.03234	280.71100	-2364.79541	78.41807	232.77028	-2326.41992	53.02066	163.14915
878	7.30833	-2228.62500	1063.95117	342.83054	-2450.10156	1016.97235	426.17593	-2475.69189	714.31537	455.10336	-2497.60962	676.34521	454.63956	-2529.81421	741.78558	451.09509	-2546.35059	700.60999	452.31247	-2577.37085	559.19592	446.93820	-2596.79443	560.88263	308.62918	-2569.90820	451.72446	450.85156	-2586.69116	412.06317	449.25626	-2628.91895	468.73914	440.73712	-2636.43481	426.23819	439.21313	-2636.56104	132.69606	413.83124	-2663.72583	138.92635	330.54620	-2585.12964	82.78496	353.93546	-2780.76733	100.46867	458.78586	-2827.83472	121.97452	399.32178	-2816.97119	103.92627	354.94284	-2228.39941	1054.25598	236.41515	-2454.10620	1016.93878	141.36043	-2281.60864	733.91418	119.80476	-2280.70825	691.40198	124.11738	-2342.28857	725.59686	113.41000	-2333.48828	679.57355	122.00816	-2300.99341	545.91241	152.10303	-2309.75073	545.20441	269.49896	-2196.51270	349.65457	168.60172	-2194.15283	302.37659	177.60722	-2255.98145	338.25711	159.57899	-2242.54883	292.60385	165.46956	-2184.40356	107.84953	178.06056	-2220.29126	117.96111	308.02359	-2119.73828	68.05820	261.16833	-2345.81689	57.81443	280.67731	-2364.91846	78.19862	232.92938	-2326.70215	52.89468	163.24481
879	7.31667	-2239.60498	1061.60474	343.44717	-2460.72363	1014.39612	426.94949	-2483.23438	710.10681	453.06464	-2505.12549	672.23438	453.05072	-2537.72119	737.33472	450.01471	-2554.16016	696.11322	451.53281	-2584.20874	555.09497	444.82220	-2605.92529	558.32300	306.92081	-2581.04370	447.19540	447.73004	-2600.88599	407.82712	445.94736	-2639.89380	467.40195	438.66891	-2649.10815	425.15894	437.45554	-2662.89038	131.98630	410.96887	-2691.06934	139.67604	328.11063	-2613.90332	80.36333	350.24554	-2806.83740	105.79091	458.40167	-2854.65234	129.53078	399.82425	-2846.43848	111.51788	355.47186	-2238.93774	1052.19373	236.90434	-2464.54346	1015.17310	142.15067	-2288.91553	733.67468	119.85369	-2287.45435	691.18506	124.20962	-2350.57959	724.58484	113.96508	-2340.28979	678.83813	122.14258	-2306.78979	545.24591	152.18115	-2315.78857	545.09039	269.48544	-2199.61377	350.17212	168.72122	-2196.84814	302.99915	177.71674	-2259.00439	338.07141	159.62308	-2245.21948	292.69089	165.54001	-2185.84058	108.28130	178.41110	-2221.15234	118.21197	307.98279	-2120.06909	68.91098	261.19138	-2345.89380	57.40506	280.73279	-2365.09937	77.79184	232.95726	-2326.48145	53.49539	161.97179
